G75*
%MOIN*%
%OFA0B0*%
%FSLAX25Y25*%
%IPPOS*%
%LPD*%
%AMOC8*
5,1,8,0,0,1.08239X$1,22.5*
%
%ADD10C,0.06000*%
%ADD11C,0.06600*%
%ADD12C,0.03200*%
%ADD13C,0.05600*%
D10*
X0027600Y0014600D02*
X0027600Y0020600D01*
X0037600Y0020600D02*
X0037600Y0014600D01*
X0047600Y0014600D02*
X0047600Y0020600D01*
X0057600Y0020600D02*
X0057600Y0014600D01*
X0067600Y0014600D02*
X0067600Y0020600D01*
X0087600Y0020600D02*
X0087600Y0014600D01*
X0097600Y0014600D02*
X0097600Y0020600D01*
X0107600Y0020600D02*
X0107600Y0014600D01*
X0129600Y0077600D02*
X0135600Y0077600D01*
X0135600Y0087600D02*
X0129600Y0087600D01*
X0129600Y0112600D02*
X0135600Y0112600D01*
X0135600Y0122600D02*
X0129600Y0122600D01*
X0129600Y0132600D02*
X0135600Y0132600D01*
D11*
X0112600Y0107600D03*
X0087600Y0047600D03*
X0022600Y0057600D03*
D12*
X0032600Y0047600D01*
X0087600Y0047600D01*
X0107600Y0017600D02*
X0107600Y0102600D01*
X0112600Y0107600D01*
X0027600Y0032600D02*
X0027600Y0017600D01*
X0027600Y0032600D02*
X0017600Y0042600D01*
X0012600Y0042600D01*
X0012600Y0122600D01*
X0017600Y0122600D01*
D13*
X0017600Y0122600D03*
M02*
