%
M48
M72
T01C0.02362
T02C0.04000
T03C0.07874
%
T01
X22600Y57600
X17600Y122600
X87600Y47600
X112600Y107600
T02
X132600Y112600
X132600Y122600
X132600Y132600
X132600Y87600
X132600Y77600
X107600Y17600
X97600Y17600
X87600Y17600
X67600Y17600
X57600Y17600
X47600Y17600
X37600Y17600
X27600Y17600
T03
X12600Y27600
X12600Y152600
X132600Y152600
X132600Y27600
M30
