G75*
%MOIN*%
%OFA0B0*%
%FSLAX25Y25*%
%IPPOS*%
%LPD*%
%AMOC8*
5,1,8,0,0,1.08239X$1,22.5*
%
%ADD10R,0.05118X0.05906*%
%ADD11C,0.06000*%
%ADD12R,0.07874X0.04724*%
%ADD13R,0.04724X0.07874*%
%ADD14R,0.05906X0.05118*%
%ADD15R,0.03300X0.06300*%
%ADD16R,0.12200X0.06300*%
%ADD17C,0.03200*%
%ADD18C,0.06600*%
%ADD19C,0.05600*%
D10*
X0023860Y0047600D03*
X0031340Y0047600D03*
X0048860Y0037600D03*
X0056340Y0037600D03*
X0076360Y0037600D03*
X0083840Y0037600D03*
D11*
X0087600Y0020600D02*
X0087600Y0014600D01*
X0097600Y0014600D02*
X0097600Y0020600D01*
X0107600Y0020600D02*
X0107600Y0014600D01*
X0067600Y0014600D02*
X0067600Y0020600D01*
X0057600Y0020600D02*
X0057600Y0014600D01*
X0047600Y0014600D02*
X0047600Y0020600D01*
X0037600Y0020600D02*
X0037600Y0014600D01*
X0027600Y0014600D02*
X0027600Y0020600D01*
X0129600Y0077600D02*
X0135600Y0077600D01*
X0135600Y0087600D02*
X0129600Y0087600D01*
X0129600Y0112600D02*
X0135600Y0112600D01*
X0135600Y0122600D02*
X0129600Y0122600D01*
X0129600Y0132600D02*
X0135600Y0132600D01*
D12*
X0096380Y0130592D03*
X0096380Y0122718D03*
X0096380Y0114844D03*
X0096380Y0106970D03*
X0096380Y0099096D03*
X0096380Y0091222D03*
X0096380Y0083348D03*
X0096380Y0075474D03*
X0032600Y0075474D03*
X0032600Y0083348D03*
X0032600Y0091222D03*
X0032600Y0099096D03*
X0032600Y0106970D03*
X0032600Y0114844D03*
X0032600Y0122718D03*
X0032600Y0130592D03*
D13*
X0044411Y0067600D03*
X0052285Y0067600D03*
X0060159Y0067600D03*
X0068033Y0067600D03*
X0075907Y0067600D03*
X0083781Y0067600D03*
D14*
X0017600Y0103860D03*
X0017600Y0111340D03*
D15*
X0098500Y0035000D03*
X0107600Y0035000D03*
X0116700Y0035000D03*
D16*
X0107600Y0060200D03*
D17*
X0008200Y0019100D02*
X0008200Y0008200D01*
X0135701Y0008200D01*
X0135701Y0018562D01*
X0134497Y0018063D01*
X0130703Y0018063D01*
X0127198Y0019515D01*
X0124515Y0022198D01*
X0123063Y0025703D01*
X0123063Y0029497D01*
X0124515Y0033002D01*
X0127198Y0035685D01*
X0130703Y0037137D01*
X0134497Y0037137D01*
X0135701Y0036638D01*
X0135701Y0050044D01*
X0134866Y0049209D01*
X0129866Y0044209D01*
X0128396Y0043600D01*
X0124257Y0043600D01*
X0120700Y0040043D01*
X0120700Y0038748D01*
X0120750Y0038627D01*
X0120750Y0031373D01*
X0120385Y0030491D01*
X0119709Y0029815D01*
X0118827Y0029450D01*
X0114573Y0029450D01*
X0113691Y0029815D01*
X0113015Y0030491D01*
X0112650Y0031373D01*
X0112650Y0038627D01*
X0112700Y0038748D01*
X0112700Y0042496D01*
X0113309Y0043966D01*
X0119209Y0049866D01*
X0120334Y0050991D01*
X0121804Y0051600D01*
X0125943Y0051600D01*
X0128600Y0054257D01*
X0128600Y0072200D01*
X0128526Y0072200D01*
X0126541Y0073022D01*
X0125022Y0074541D01*
X0124200Y0076526D01*
X0124200Y0078674D01*
X0125022Y0080659D01*
X0126541Y0082178D01*
X0127294Y0082490D01*
X0126665Y0082810D01*
X0125952Y0083329D01*
X0125329Y0083952D01*
X0124810Y0084665D01*
X0124410Y0085450D01*
X0124138Y0086289D01*
X0124000Y0087159D01*
X0124000Y0087600D01*
X0132600Y0087600D01*
X0132600Y0087600D01*
X0132600Y0093200D01*
X0135701Y0093200D01*
X0135701Y0107000D01*
X0132600Y0107000D01*
X0132600Y0112600D01*
X0132600Y0112600D01*
X0132600Y0112600D01*
X0124000Y0112600D01*
X0124000Y0113041D01*
X0124138Y0113911D01*
X0124410Y0114750D01*
X0124810Y0115535D01*
X0125329Y0116248D01*
X0125952Y0116871D01*
X0126665Y0117390D01*
X0127294Y0117710D01*
X0126541Y0118022D01*
X0125963Y0118600D01*
X0106741Y0118600D01*
X0107622Y0118235D01*
X0112557Y0113300D01*
X0113734Y0113300D01*
X0115829Y0112432D01*
X0117432Y0110829D01*
X0118300Y0108734D01*
X0118300Y0106466D01*
X0117432Y0104371D01*
X0115829Y0102768D01*
X0113734Y0101900D01*
X0111466Y0101900D01*
X0109371Y0102768D01*
X0107768Y0104371D01*
X0106900Y0106466D01*
X0106900Y0107643D01*
X0103699Y0110844D01*
X0102199Y0110844D01*
X0102351Y0110692D01*
X0102717Y0109810D01*
X0102717Y0104130D01*
X0102351Y0103248D01*
X0102136Y0103033D01*
X0102351Y0102818D01*
X0102717Y0101936D01*
X0102717Y0096256D01*
X0102351Y0095374D01*
X0102136Y0095159D01*
X0102351Y0094944D01*
X0102717Y0094062D01*
X0102717Y0088382D01*
X0102351Y0087500D01*
X0102277Y0087426D01*
X0102336Y0087368D01*
X0102621Y0086942D01*
X0102817Y0086469D01*
X0102917Y0085966D01*
X0102917Y0083348D01*
X0096380Y0083348D01*
X0096380Y0083348D01*
X0102917Y0083348D01*
X0102917Y0080730D01*
X0102817Y0080227D01*
X0102621Y0079754D01*
X0102391Y0079411D01*
X0102621Y0079068D01*
X0102817Y0078595D01*
X0102917Y0078092D01*
X0102917Y0075474D01*
X0096380Y0075474D01*
X0096380Y0075474D01*
X0102917Y0075474D01*
X0102917Y0072856D01*
X0102817Y0072353D01*
X0102621Y0071880D01*
X0102336Y0071454D01*
X0101974Y0071092D01*
X0101548Y0070808D01*
X0101075Y0070612D01*
X0100573Y0070512D01*
X0096380Y0070512D01*
X0096380Y0075474D01*
X0096379Y0075474D01*
X0096379Y0070512D01*
X0094043Y0070512D01*
X0094043Y0064050D01*
X0094404Y0064200D01*
X0099254Y0064200D01*
X0099465Y0064709D01*
X0100141Y0065385D01*
X0101023Y0065750D01*
X0114177Y0065750D01*
X0115059Y0065385D01*
X0115735Y0064709D01*
X0116100Y0063827D01*
X0116100Y0056573D01*
X0115735Y0055691D01*
X0115059Y0055015D01*
X0114177Y0054650D01*
X0111600Y0054650D01*
X0111600Y0038748D01*
X0111650Y0038627D01*
X0111650Y0031373D01*
X0111285Y0030491D01*
X0110609Y0029815D01*
X0110375Y0029718D01*
X0106657Y0026000D01*
X0108674Y0026000D01*
X0110659Y0025178D01*
X0112178Y0023659D01*
X0113000Y0021674D01*
X0113000Y0013526D01*
X0112178Y0011541D01*
X0110659Y0010022D01*
X0108674Y0009200D01*
X0106526Y0009200D01*
X0104541Y0010022D01*
X0103022Y0011541D01*
X0102600Y0012560D01*
X0102178Y0011541D01*
X0100659Y0010022D01*
X0098674Y0009200D01*
X0096526Y0009200D01*
X0094541Y0010022D01*
X0093022Y0011541D01*
X0092710Y0012294D01*
X0092390Y0011665D01*
X0091871Y0010952D01*
X0091248Y0010329D01*
X0090535Y0009810D01*
X0089750Y0009410D01*
X0088911Y0009138D01*
X0088041Y0009000D01*
X0087600Y0009000D01*
X0087600Y0017600D01*
X0087600Y0017600D01*
X0087600Y0026200D01*
X0088041Y0026200D01*
X0088911Y0026062D01*
X0089750Y0025790D01*
X0090535Y0025390D01*
X0091248Y0024871D01*
X0091871Y0024248D01*
X0092390Y0023535D01*
X0092710Y0022906D01*
X0093022Y0023659D01*
X0094195Y0024831D01*
X0094209Y0024866D01*
X0095334Y0025991D01*
X0098593Y0029250D01*
X0098500Y0029250D01*
X0098500Y0035000D01*
X0098500Y0035000D01*
X0098500Y0040750D01*
X0100406Y0040750D01*
X0100908Y0040650D01*
X0101382Y0040454D01*
X0101807Y0040170D01*
X0102170Y0039807D01*
X0102454Y0039382D01*
X0102650Y0038908D01*
X0102750Y0038406D01*
X0102750Y0035000D01*
X0098500Y0035000D01*
X0098500Y0035000D01*
X0098500Y0035000D01*
X0098500Y0035000D01*
X0094250Y0035000D01*
X0094250Y0038406D01*
X0094350Y0038908D01*
X0094546Y0039382D01*
X0094830Y0039807D01*
X0095193Y0040170D01*
X0095618Y0040454D01*
X0096092Y0040650D01*
X0096594Y0040750D01*
X0098500Y0040750D01*
X0098500Y0035000D01*
X0102750Y0035000D01*
X0102750Y0033407D01*
X0103550Y0034207D01*
X0103550Y0038627D01*
X0103600Y0038748D01*
X0103600Y0054650D01*
X0101023Y0054650D01*
X0100141Y0055015D01*
X0099465Y0055691D01*
X0099254Y0056200D01*
X0099200Y0056200D01*
X0099200Y0054404D01*
X0098591Y0052934D01*
X0093300Y0047643D01*
X0093300Y0046466D01*
X0092432Y0044371D01*
X0091600Y0043539D01*
X0091600Y0040564D01*
X0090991Y0039094D01*
X0088799Y0036902D01*
X0088799Y0034170D01*
X0088434Y0033288D01*
X0087759Y0032613D01*
X0086877Y0032247D01*
X0080804Y0032247D01*
X0080100Y0032539D01*
X0079396Y0032247D01*
X0073323Y0032247D01*
X0072441Y0032613D01*
X0071766Y0033288D01*
X0071637Y0033600D01*
X0071600Y0033600D01*
X0071600Y0024237D01*
X0072178Y0023659D01*
X0073000Y0021674D01*
X0073000Y0013526D01*
X0072178Y0011541D01*
X0070659Y0010022D01*
X0068674Y0009200D01*
X0066526Y0009200D01*
X0064541Y0010022D01*
X0063022Y0011541D01*
X0062600Y0012560D01*
X0062178Y0011541D01*
X0060659Y0010022D01*
X0058674Y0009200D01*
X0056526Y0009200D01*
X0054541Y0010022D01*
X0053022Y0011541D01*
X0052710Y0012294D01*
X0052390Y0011665D01*
X0051871Y0010952D01*
X0051248Y0010329D01*
X0050535Y0009810D01*
X0049750Y0009410D01*
X0048911Y0009138D01*
X0048041Y0009000D01*
X0047600Y0009000D01*
X0047600Y0017600D01*
X0047600Y0017600D01*
X0047600Y0026200D01*
X0048041Y0026200D01*
X0048911Y0026062D01*
X0049750Y0025790D01*
X0050535Y0025390D01*
X0051248Y0024871D01*
X0051871Y0024248D01*
X0052390Y0023535D01*
X0052710Y0022906D01*
X0053022Y0023659D01*
X0053600Y0024237D01*
X0053600Y0032247D01*
X0053304Y0032247D01*
X0052600Y0032539D01*
X0051896Y0032247D01*
X0045823Y0032247D01*
X0044941Y0032613D01*
X0044266Y0033288D01*
X0044137Y0033600D01*
X0037860Y0033600D01*
X0037860Y0032997D01*
X0039866Y0030991D01*
X0040991Y0029866D01*
X0041600Y0028396D01*
X0041600Y0024237D01*
X0042178Y0023659D01*
X0042490Y0022906D01*
X0042810Y0023535D01*
X0043329Y0024248D01*
X0043952Y0024871D01*
X0044665Y0025390D01*
X0045450Y0025790D01*
X0046289Y0026062D01*
X0047159Y0026200D01*
X0047600Y0026200D01*
X0047600Y0017600D01*
X0047600Y0017600D01*
X0047600Y0009000D01*
X0047159Y0009000D01*
X0046289Y0009138D01*
X0045450Y0009410D01*
X0044665Y0009810D01*
X0043952Y0010329D01*
X0043329Y0010952D01*
X0042810Y0011665D01*
X0042490Y0012294D01*
X0042178Y0011541D01*
X0040659Y0010022D01*
X0038674Y0009200D01*
X0036526Y0009200D01*
X0034541Y0010022D01*
X0033022Y0011541D01*
X0032600Y0012560D01*
X0032178Y0011541D01*
X0030659Y0010022D01*
X0028674Y0009200D01*
X0026526Y0009200D01*
X0024541Y0010022D01*
X0023022Y0011541D01*
X0022200Y0013526D01*
X0022200Y0021674D01*
X0023022Y0023659D01*
X0024541Y0025178D01*
X0026526Y0026000D01*
X0028674Y0026000D01*
X0030659Y0025178D01*
X0032178Y0023659D01*
X0032600Y0022640D01*
X0033022Y0023659D01*
X0033600Y0024237D01*
X0033600Y0025943D01*
X0030469Y0029074D01*
X0029860Y0030545D01*
X0029860Y0037104D01*
X0028564Y0042247D01*
X0028304Y0042247D01*
X0027812Y0042451D01*
X0027650Y0042343D01*
X0027177Y0042147D01*
X0026675Y0042047D01*
X0023860Y0042047D01*
X0023860Y0047600D01*
X0023860Y0047600D01*
X0023860Y0042047D01*
X0021045Y0042047D01*
X0020542Y0042147D01*
X0020069Y0042343D01*
X0019643Y0042628D01*
X0019281Y0042990D01*
X0018997Y0043416D01*
X0018801Y0043889D01*
X0018701Y0044391D01*
X0018701Y0047600D01*
X0023860Y0047600D01*
X0018701Y0047600D01*
X0018701Y0050809D01*
X0018801Y0051311D01*
X0018997Y0051784D01*
X0019281Y0052210D01*
X0019643Y0052572D01*
X0019720Y0052623D01*
X0019371Y0052768D01*
X0017768Y0054371D01*
X0016900Y0056466D01*
X0016900Y0058734D01*
X0017768Y0060829D01*
X0018600Y0061661D01*
X0018600Y0097203D01*
X0016902Y0098901D01*
X0014170Y0098901D01*
X0013448Y0099200D01*
X0008200Y0099200D01*
X0008200Y0036100D01*
X0010703Y0037137D01*
X0014497Y0037137D01*
X0018002Y0035685D01*
X0020685Y0033002D01*
X0022137Y0029497D01*
X0022137Y0025703D01*
X0020685Y0022198D01*
X0018002Y0019515D01*
X0014497Y0018063D01*
X0010703Y0018063D01*
X0008200Y0019100D01*
X0008200Y0018593D02*
X0009424Y0018593D01*
X0008200Y0015394D02*
X0022200Y0015394D01*
X0022200Y0018593D02*
X0015776Y0018593D01*
X0020278Y0021791D02*
X0022248Y0021791D01*
X0021841Y0024990D02*
X0024353Y0024990D01*
X0022137Y0028188D02*
X0031355Y0028188D01*
X0029860Y0031387D02*
X0021354Y0031387D01*
X0019102Y0034585D02*
X0029860Y0034585D01*
X0029689Y0037784D02*
X0008200Y0037784D01*
X0008200Y0040982D02*
X0028883Y0040982D01*
X0023860Y0044181D02*
X0023860Y0044181D01*
X0023860Y0047379D02*
X0023860Y0047379D01*
X0023860Y0047600D02*
X0023860Y0047600D01*
X0018701Y0047379D02*
X0008200Y0047379D01*
X0008200Y0044181D02*
X0018743Y0044181D01*
X0018701Y0050578D02*
X0008200Y0050578D01*
X0008200Y0053776D02*
X0018363Y0053776D01*
X0016900Y0056975D02*
X0008200Y0056975D01*
X0008200Y0060173D02*
X0017496Y0060173D01*
X0018600Y0063372D02*
X0008200Y0063372D01*
X0008200Y0066570D02*
X0018600Y0066570D01*
X0018600Y0069769D02*
X0008200Y0069769D01*
X0008200Y0072967D02*
X0018600Y0072967D01*
X0018600Y0076166D02*
X0008200Y0076166D01*
X0008200Y0079364D02*
X0018600Y0079364D01*
X0018600Y0082563D02*
X0008200Y0082563D01*
X0008200Y0085761D02*
X0018600Y0085761D01*
X0018600Y0088960D02*
X0008200Y0088960D01*
X0008200Y0092158D02*
X0018600Y0092158D01*
X0018600Y0095357D02*
X0008200Y0095357D01*
X0008200Y0098555D02*
X0017248Y0098555D01*
X0016940Y0103200D02*
X0017600Y0103860D01*
X0022600Y0098860D01*
X0022600Y0075474D01*
X0032600Y0075474D01*
X0039649Y0072531D02*
X0039649Y0072149D01*
X0035100Y0067600D01*
X0035100Y0062600D01*
X0040100Y0057600D01*
X0047600Y0057600D01*
X0056340Y0048860D01*
X0056340Y0037600D01*
X0057600Y0036340D01*
X0057600Y0017600D01*
X0062449Y0012196D02*
X0062751Y0012196D01*
X0067600Y0017600D02*
X0067600Y0037600D01*
X0076360Y0037600D01*
X0071600Y0031387D02*
X0094291Y0031387D01*
X0094250Y0031594D02*
X0094350Y0031092D01*
X0094546Y0030618D01*
X0094830Y0030193D01*
X0095193Y0029830D01*
X0095618Y0029546D01*
X0096092Y0029350D01*
X0096594Y0029250D01*
X0098500Y0029250D01*
X0098500Y0035000D01*
X0094250Y0035000D01*
X0094250Y0031594D01*
X0094250Y0034585D02*
X0088799Y0034585D01*
X0089681Y0037784D02*
X0094250Y0037784D01*
X0091600Y0040982D02*
X0103600Y0040982D01*
X0103600Y0044181D02*
X0092242Y0044181D01*
X0093300Y0047379D02*
X0103600Y0047379D01*
X0103600Y0050578D02*
X0096235Y0050578D01*
X0098940Y0053776D02*
X0103600Y0053776D01*
X0107600Y0060200D02*
X0095200Y0060200D01*
X0095200Y0055200D01*
X0087600Y0047600D01*
X0087600Y0041360D01*
X0083840Y0037600D01*
X0086289Y0026062D02*
X0085450Y0025790D01*
X0084665Y0025390D01*
X0083952Y0024871D01*
X0083329Y0024248D01*
X0082810Y0023535D01*
X0082410Y0022750D01*
X0082138Y0021911D01*
X0082000Y0021041D01*
X0082000Y0017600D01*
X0087600Y0017600D01*
X0087600Y0017600D01*
X0087600Y0017600D01*
X0087600Y0026200D01*
X0087159Y0026200D01*
X0086289Y0026062D01*
X0087600Y0024990D02*
X0087600Y0024990D01*
X0087600Y0021791D02*
X0087600Y0021791D01*
X0087600Y0018593D02*
X0087600Y0018593D01*
X0087600Y0017600D02*
X0082000Y0017600D01*
X0082000Y0014159D01*
X0082138Y0013289D01*
X0082410Y0012450D01*
X0082810Y0011665D01*
X0083329Y0010952D01*
X0083952Y0010329D01*
X0084665Y0009810D01*
X0085450Y0009410D01*
X0086289Y0009138D01*
X0087159Y0009000D01*
X0087600Y0009000D01*
X0087600Y0017600D01*
X0087600Y0015394D02*
X0087600Y0015394D01*
X0087600Y0012196D02*
X0087600Y0012196D01*
X0092660Y0012196D02*
X0092751Y0012196D01*
X0097600Y0017600D02*
X0097600Y0022600D01*
X0107600Y0032600D01*
X0107600Y0035000D01*
X0107600Y0060200D01*
X0111600Y0053776D02*
X0128119Y0053776D01*
X0128600Y0056975D02*
X0116100Y0056975D01*
X0116100Y0060173D02*
X0128600Y0060173D01*
X0128600Y0063372D02*
X0116100Y0063372D01*
X0126674Y0072967D02*
X0102917Y0072967D01*
X0102917Y0076166D02*
X0124349Y0076166D01*
X0124486Y0079364D02*
X0102422Y0079364D01*
X0102917Y0082563D02*
X0127151Y0082563D01*
X0124309Y0085761D02*
X0102917Y0085761D01*
X0102717Y0088960D02*
X0124154Y0088960D01*
X0124138Y0088911D02*
X0124000Y0088041D01*
X0124000Y0087600D01*
X0132600Y0087600D01*
X0132600Y0087600D01*
X0132600Y0093200D01*
X0129159Y0093200D01*
X0128289Y0093062D01*
X0127450Y0092790D01*
X0126665Y0092390D01*
X0125952Y0091871D01*
X0125329Y0091248D01*
X0124810Y0090535D01*
X0124410Y0089750D01*
X0124138Y0088911D01*
X0126347Y0092158D02*
X0102717Y0092158D01*
X0102334Y0095357D02*
X0135701Y0095357D01*
X0135701Y0098555D02*
X0102717Y0098555D01*
X0102717Y0101754D02*
X0135701Y0101754D01*
X0135701Y0104952D02*
X0117673Y0104952D01*
X0118300Y0108151D02*
X0126196Y0108151D01*
X0125952Y0108329D02*
X0126665Y0107810D01*
X0127450Y0107410D01*
X0128289Y0107138D01*
X0129159Y0107000D01*
X0132600Y0107000D01*
X0132600Y0112600D01*
X0124000Y0112600D01*
X0124000Y0112159D01*
X0124138Y0111289D01*
X0124410Y0110450D01*
X0124810Y0109665D01*
X0125329Y0108952D01*
X0125952Y0108329D01*
X0124128Y0111349D02*
X0116912Y0111349D01*
X0112600Y0107600D02*
X0105356Y0114844D01*
X0096380Y0114844D01*
X0102717Y0108151D02*
X0106392Y0108151D01*
X0107527Y0104952D02*
X0102717Y0104952D01*
X0096380Y0106970D02*
X0056970Y0106970D01*
X0042600Y0092600D01*
X0042600Y0082600D01*
X0040100Y0080100D01*
X0040100Y0072982D01*
X0039649Y0072531D01*
X0027600Y0057600D02*
X0022600Y0057600D01*
X0022600Y0075474D01*
X0027600Y0057600D02*
X0031340Y0053860D01*
X0031340Y0047600D01*
X0033860Y0037600D01*
X0048860Y0037600D01*
X0053600Y0031387D02*
X0039470Y0031387D01*
X0041600Y0028188D02*
X0053600Y0028188D01*
X0053600Y0024990D02*
X0051086Y0024990D01*
X0047600Y0024990D02*
X0047600Y0024990D01*
X0047600Y0021791D02*
X0047600Y0021791D01*
X0047600Y0018593D02*
X0047600Y0018593D01*
X0047600Y0015394D02*
X0047600Y0015394D01*
X0047600Y0012196D02*
X0047600Y0012196D01*
X0052660Y0012196D02*
X0052751Y0012196D01*
X0042540Y0012196D02*
X0042449Y0012196D01*
X0037600Y0017600D02*
X0037600Y0027600D01*
X0033860Y0031340D01*
X0033860Y0037600D01*
X0033600Y0024990D02*
X0030847Y0024990D01*
X0041600Y0024990D02*
X0044114Y0024990D01*
X0032751Y0012196D02*
X0032449Y0012196D01*
X0022751Y0012196D02*
X0008200Y0012196D01*
X0008200Y0008997D02*
X0135701Y0008997D01*
X0135701Y0012196D02*
X0112449Y0012196D01*
X0113000Y0015394D02*
X0135701Y0015394D01*
X0129424Y0018593D02*
X0113000Y0018593D01*
X0112952Y0021791D02*
X0124922Y0021791D01*
X0123358Y0024990D02*
X0110847Y0024990D01*
X0108845Y0028188D02*
X0123063Y0028188D01*
X0123846Y0031387D02*
X0120750Y0031387D01*
X0120750Y0034585D02*
X0126098Y0034585D01*
X0120750Y0037784D02*
X0135701Y0037784D01*
X0135701Y0040982D02*
X0121639Y0040982D01*
X0116700Y0041700D02*
X0116700Y0035000D01*
X0112650Y0034585D02*
X0111650Y0034585D01*
X0111650Y0031387D02*
X0112650Y0031387D01*
X0112650Y0037784D02*
X0111650Y0037784D01*
X0111600Y0040982D02*
X0112700Y0040982D01*
X0113524Y0044181D02*
X0111600Y0044181D01*
X0111600Y0047379D02*
X0116722Y0047379D01*
X0119921Y0050578D02*
X0111600Y0050578D01*
X0116700Y0041700D02*
X0122600Y0047600D01*
X0127600Y0047600D01*
X0132600Y0052600D01*
X0132600Y0077600D01*
X0128600Y0069769D02*
X0094043Y0069769D01*
X0094043Y0066570D02*
X0128600Y0066570D01*
X0133036Y0047379D02*
X0135701Y0047379D01*
X0135701Y0044181D02*
X0129797Y0044181D01*
X0103550Y0037784D02*
X0102750Y0037784D01*
X0102750Y0034585D02*
X0103550Y0034585D01*
X0098500Y0034585D02*
X0098500Y0034585D01*
X0098500Y0031387D02*
X0098500Y0031387D01*
X0097531Y0028188D02*
X0071600Y0028188D01*
X0071600Y0024990D02*
X0084114Y0024990D01*
X0082119Y0021791D02*
X0072952Y0021791D01*
X0073000Y0018593D02*
X0082000Y0018593D01*
X0082000Y0015394D02*
X0073000Y0015394D01*
X0072449Y0012196D02*
X0082540Y0012196D01*
X0091086Y0024990D02*
X0094333Y0024990D01*
X0098500Y0037784D02*
X0098500Y0037784D01*
X0087600Y0057600D02*
X0080100Y0057600D01*
X0067600Y0045100D01*
X0067600Y0037600D01*
X0087600Y0057600D02*
X0090043Y0060043D01*
X0090043Y0075157D01*
X0085100Y0080100D01*
X0085100Y0095100D01*
X0089096Y0099096D01*
X0096380Y0099096D01*
X0090272Y0094615D02*
X0090043Y0094062D01*
X0090043Y0088382D01*
X0090408Y0087500D01*
X0090482Y0087426D01*
X0090423Y0087368D01*
X0090138Y0086942D01*
X0089942Y0086469D01*
X0089843Y0085966D01*
X0089843Y0083348D01*
X0089843Y0081014D01*
X0089100Y0081757D01*
X0089100Y0093443D01*
X0090272Y0094615D01*
X0090043Y0092158D02*
X0089100Y0092158D01*
X0089100Y0088960D02*
X0090043Y0088960D01*
X0089843Y0085761D02*
X0089100Y0085761D01*
X0089843Y0083348D02*
X0096379Y0083348D01*
X0089843Y0083348D01*
X0089843Y0082563D02*
X0089100Y0082563D01*
X0096379Y0082563D02*
X0096380Y0082563D01*
X0096380Y0083348D02*
X0096380Y0078386D01*
X0096380Y0075474D01*
X0096379Y0075474D01*
X0096379Y0083348D01*
X0096379Y0083348D01*
X0096380Y0083348D01*
X0096380Y0075474D01*
X0096379Y0076166D02*
X0096380Y0076166D01*
X0096379Y0079364D02*
X0096380Y0079364D01*
X0096379Y0072967D02*
X0096380Y0072967D01*
X0132600Y0088960D02*
X0132600Y0088960D01*
X0132600Y0092158D02*
X0132600Y0092158D01*
X0132600Y0108151D02*
X0132600Y0108151D01*
X0132600Y0111349D02*
X0132600Y0111349D01*
X0127207Y0117746D02*
X0108110Y0117746D01*
X0111309Y0114548D02*
X0124345Y0114548D01*
X0132600Y0122600D02*
X0096498Y0122600D01*
X0096380Y0122718D01*
X0096380Y0130592D02*
X0132600Y0130592D01*
X0132600Y0132600D01*
X0032600Y0130592D02*
X0015592Y0130592D01*
X0008200Y0123200D01*
X0008200Y0103200D01*
X0016940Y0103200D01*
X0017600Y0111340D02*
X0021104Y0114844D01*
X0032600Y0114844D01*
X0032600Y0122600D02*
X0017600Y0122600D01*
X0032600Y0122718D02*
X0032600Y0122600D01*
X0102449Y0012196D02*
X0102751Y0012196D01*
D18*
X0087600Y0047600D03*
X0112600Y0107600D03*
X0022600Y0057600D03*
D19*
X0017600Y0122600D03*
M02*
