G75*
%MOIN*%
%OFA0B0*%
%FSLAX25Y25*%
%IPPOS*%
%LPD*%
%AMOC8*
5,1,8,0,0,1.08239X$1,22.5*
%
%ADD10R,0.05906X0.05118*%
%ADD11C,0.06000*%
%ADD12OC8,0.05200*%
%ADD13R,0.02100X0.06700*%
%ADD14C,0.02400*%
D10*
X0056000Y0086260D03*
X0056000Y0093740D03*
X0066000Y0048740D03*
X0066000Y0041260D03*
D11*
X0016000Y0042000D02*
X0016000Y0048000D01*
X0026000Y0048000D02*
X0026000Y0042000D01*
X0036000Y0042000D02*
X0036000Y0048000D01*
X0046000Y0048000D02*
X0046000Y0042000D01*
X0056000Y0042000D02*
X0056000Y0048000D01*
D12*
X0071000Y0090000D03*
X0011000Y0090000D03*
D13*
X0028500Y0079800D03*
X0033500Y0079800D03*
X0038500Y0079800D03*
X0043500Y0079800D03*
X0043500Y0100200D03*
X0038500Y0100200D03*
X0033500Y0100200D03*
X0028500Y0100200D03*
D14*
X0021200Y0100200D01*
X0011000Y0090000D01*
X0028500Y0079800D02*
X0028500Y0072500D01*
X0016000Y0060000D01*
X0016000Y0045000D01*
X0026000Y0045000D02*
X0026000Y0060000D01*
X0033500Y0067500D01*
X0033500Y0079800D01*
X0043500Y0079800D02*
X0043500Y0067500D01*
X0036000Y0060000D01*
X0036000Y0045000D01*
X0036000Y0035200D01*
X0066000Y0035200D01*
X0066000Y0041260D01*
X0066000Y0048740D02*
X0066000Y0070000D01*
X0071000Y0075000D01*
X0071000Y0090000D01*
X0063500Y0090000D02*
X0063500Y0082500D01*
X0061000Y0080000D01*
X0056000Y0075000D01*
X0046000Y0065000D01*
X0046000Y0045000D01*
X0056000Y0045000D02*
X0056000Y0048740D01*
X0066000Y0048740D01*
X0043500Y0079800D02*
X0049960Y0086260D01*
X0056000Y0086260D01*
X0056000Y0093740D02*
X0059760Y0093740D01*
X0063500Y0090000D01*
X0056000Y0093740D02*
X0049540Y0100200D01*
X0043500Y0100200D01*
X0038500Y0100200D01*
X0033500Y0100200D01*
X0028500Y0100200D01*
X0043500Y0100200D02*
X0043700Y0100000D01*
M02*
