G75*
%MOIN*%
%OFA0B0*%
%FSLAX25Y25*%
%IPPOS*%
%LPD*%
%AMOC8*
5,1,8,0,0,1.08239X$1,22.5*
%
%ADD10C,0.00000*%
%ADD11C,0.00400*%
%ADD12C,0.00600*%
%ADD13C,0.02400*%
%ADD14C,0.00500*%
%ADD15R,0.03400X0.02400*%
%ADD16C,0.00300*%
%ADD17C,0.00800*%
D10*
X0001000Y0030000D02*
X0001000Y0114961D01*
X0079701Y0114961D01*
X0079701Y0030000D01*
X0001000Y0030000D01*
D11*
X0046963Y0085200D02*
X0046196Y0085967D01*
X0046196Y0087502D01*
X0046963Y0088269D01*
X0047731Y0089804D02*
X0046196Y0091339D01*
X0050800Y0091339D01*
X0050800Y0092873D02*
X0050800Y0089804D01*
X0050033Y0088269D02*
X0050800Y0087502D01*
X0050800Y0085967D01*
X0050033Y0085200D01*
X0046963Y0085200D01*
X0071963Y0046165D02*
X0071196Y0045398D01*
X0071196Y0043863D01*
X0071963Y0043096D01*
X0071963Y0041561D02*
X0073498Y0041561D01*
X0074265Y0040794D01*
X0074265Y0038492D01*
X0074265Y0040027D02*
X0075800Y0041561D01*
X0075800Y0043096D02*
X0072731Y0046165D01*
X0071963Y0046165D01*
X0071963Y0041561D02*
X0071196Y0040794D01*
X0071196Y0038492D01*
X0075800Y0038492D01*
X0075800Y0043096D02*
X0075800Y0046165D01*
D12*
X0052500Y0085500D02*
X0051000Y0085500D01*
X0050500Y0086000D01*
X0031500Y0086000D01*
X0031000Y0085500D01*
X0029500Y0085500D01*
X0029440Y0085502D01*
X0029379Y0085507D01*
X0029320Y0085516D01*
X0029261Y0085529D01*
X0029202Y0085545D01*
X0029145Y0085565D01*
X0029090Y0085588D01*
X0029035Y0085615D01*
X0028983Y0085644D01*
X0028932Y0085677D01*
X0028883Y0085713D01*
X0028837Y0085751D01*
X0028793Y0085793D01*
X0028751Y0085837D01*
X0028713Y0085883D01*
X0028677Y0085932D01*
X0028644Y0085983D01*
X0028615Y0086035D01*
X0028588Y0086090D01*
X0028565Y0086145D01*
X0028545Y0086202D01*
X0028529Y0086261D01*
X0028516Y0086320D01*
X0028507Y0086379D01*
X0028502Y0086440D01*
X0028500Y0086500D01*
X0028500Y0093500D01*
X0028502Y0093560D01*
X0028507Y0093621D01*
X0028516Y0093680D01*
X0028529Y0093739D01*
X0028545Y0093798D01*
X0028565Y0093855D01*
X0028588Y0093910D01*
X0028615Y0093965D01*
X0028644Y0094017D01*
X0028677Y0094068D01*
X0028713Y0094117D01*
X0028751Y0094163D01*
X0028793Y0094207D01*
X0028837Y0094249D01*
X0028883Y0094287D01*
X0028932Y0094323D01*
X0028983Y0094356D01*
X0029035Y0094385D01*
X0029090Y0094412D01*
X0029145Y0094435D01*
X0029202Y0094455D01*
X0029261Y0094471D01*
X0029320Y0094484D01*
X0029379Y0094493D01*
X0029440Y0094498D01*
X0029500Y0094500D01*
X0031000Y0094500D01*
X0031500Y0094000D01*
X0050500Y0094000D01*
X0051000Y0094500D01*
X0052500Y0094500D01*
X0052560Y0094498D01*
X0052621Y0094493D01*
X0052680Y0094484D01*
X0052739Y0094471D01*
X0052798Y0094455D01*
X0052855Y0094435D01*
X0052910Y0094412D01*
X0052965Y0094385D01*
X0053017Y0094356D01*
X0053068Y0094323D01*
X0053117Y0094287D01*
X0053163Y0094249D01*
X0053207Y0094207D01*
X0053249Y0094163D01*
X0053287Y0094117D01*
X0053323Y0094068D01*
X0053356Y0094017D01*
X0053385Y0093965D01*
X0053412Y0093910D01*
X0053435Y0093855D01*
X0053455Y0093798D01*
X0053471Y0093739D01*
X0053484Y0093680D01*
X0053493Y0093621D01*
X0053498Y0093560D01*
X0053500Y0093500D01*
X0053500Y0086500D01*
X0053498Y0086440D01*
X0053493Y0086379D01*
X0053484Y0086320D01*
X0053471Y0086261D01*
X0053455Y0086202D01*
X0053435Y0086145D01*
X0053412Y0086090D01*
X0053385Y0086035D01*
X0053356Y0085983D01*
X0053323Y0085932D01*
X0053287Y0085883D01*
X0053249Y0085837D01*
X0053207Y0085793D01*
X0053163Y0085751D01*
X0053117Y0085713D01*
X0053068Y0085677D01*
X0053017Y0085644D01*
X0052965Y0085615D01*
X0052910Y0085588D01*
X0052855Y0085565D01*
X0052798Y0085545D01*
X0052739Y0085529D01*
X0052680Y0085516D01*
X0052621Y0085507D01*
X0052560Y0085502D01*
X0052500Y0085500D01*
X0045800Y0083400D02*
X0045800Y0096600D01*
X0026200Y0096600D02*
X0026200Y0091200D01*
X0026200Y0088800D01*
X0026200Y0083400D01*
X0026200Y0088800D02*
X0026269Y0088802D01*
X0026337Y0088808D01*
X0026405Y0088818D01*
X0026472Y0088831D01*
X0026538Y0088849D01*
X0026603Y0088870D01*
X0026667Y0088895D01*
X0026729Y0088923D01*
X0026790Y0088955D01*
X0026849Y0088990D01*
X0026905Y0089029D01*
X0026960Y0089071D01*
X0027011Y0089116D01*
X0027061Y0089164D01*
X0027107Y0089214D01*
X0027150Y0089267D01*
X0027191Y0089323D01*
X0027228Y0089380D01*
X0027261Y0089440D01*
X0027292Y0089502D01*
X0027318Y0089565D01*
X0027341Y0089629D01*
X0027361Y0089695D01*
X0027376Y0089762D01*
X0027388Y0089829D01*
X0027396Y0089897D01*
X0027400Y0089966D01*
X0027400Y0090034D01*
X0027396Y0090103D01*
X0027388Y0090171D01*
X0027376Y0090238D01*
X0027361Y0090305D01*
X0027341Y0090371D01*
X0027318Y0090435D01*
X0027292Y0090498D01*
X0027261Y0090560D01*
X0027228Y0090620D01*
X0027191Y0090677D01*
X0027150Y0090733D01*
X0027107Y0090786D01*
X0027061Y0090836D01*
X0027011Y0090884D01*
X0026960Y0090929D01*
X0026905Y0090971D01*
X0026849Y0091010D01*
X0026790Y0091045D01*
X0026729Y0091077D01*
X0026667Y0091105D01*
X0026603Y0091130D01*
X0026538Y0091151D01*
X0026472Y0091169D01*
X0026405Y0091182D01*
X0026337Y0091192D01*
X0026269Y0091198D01*
X0026200Y0091200D01*
D13*
X0025000Y0090000D02*
X0018500Y0090000D01*
X0057000Y0090000D02*
X0063500Y0090000D01*
D14*
X0036356Y0095750D02*
X0033354Y0095750D01*
X0034855Y0095750D02*
X0034855Y0100254D01*
X0033354Y0098753D01*
X0031753Y0099503D02*
X0031753Y0098002D01*
X0031002Y0097251D01*
X0028750Y0097251D01*
X0028750Y0095750D02*
X0028750Y0100254D01*
X0031002Y0100254D01*
X0031753Y0099503D01*
X0030251Y0097251D02*
X0031753Y0095750D01*
D15*
X0026800Y0090000D03*
X0016800Y0090000D03*
X0055200Y0090000D03*
X0065200Y0090000D03*
D16*
X0025966Y0079786D02*
X0022830Y0076650D01*
X0022830Y0078218D02*
X0025966Y0078218D01*
X0025966Y0076650D02*
X0022830Y0079786D01*
X0024398Y0079786D02*
X0024398Y0076650D01*
D17*
X0018100Y0078034D02*
X0018100Y0080503D01*
X0016866Y0081738D01*
X0010694Y0081738D01*
X0013162Y0084350D02*
X0010694Y0086819D01*
X0018100Y0086819D01*
X0018100Y0084350D02*
X0018100Y0089288D01*
X0018100Y0078034D02*
X0016866Y0076800D01*
X0010694Y0076800D01*
M02*
